<?xml version="1.0" encoding="UTF-8" standalone="no"?><!DOCTYPE svg PUBLIC "-//W3C//DTD SVG 1.1//EN" "http://www.w3.org/Graphics/SVG/1.1/DTD/svg11.dtd"><svg width="100%" height="100%" viewBox="0 0 444 135" version="1.1" xmlns="http://www.w3.org/2000/svg" xmlns:xlink="http://www.w3.org/1999/xlink" xml:space="preserve" xmlns:serif="http://www.serif.com/" style="fill-rule:evenodd;clip-rule:evenodd;stroke-linejoin:round;stroke-miterlimit:2;"><g><path d="M22.446,3.15l0,-3.15l-18,0c-2.584,0 -4.446,1.861 -4.446,4.447l0,125.441c0,2.585 1.862,4.446 4.446,4.446l18,0l0,-3.15l-17.28,0c-1.008,0 -1.728,-0.72 -1.728,-1.728l0,-124.577c0,-1.008 0.72,-1.729 1.728,-1.729l17.28,0Z" style="fill:#2f81f7;fill-rule:nonzero;"/><path d="M69.831,9.504c-22.181,0 -32.247,3.019 -32.247,26.193c0,15.124 5.177,24.054 19.569,27.654l20.602,5.186c8.643,2.16 12.533,4.897 12.533,16.419c0,13.683 -4.754,15.988 -20.025,15.988c-8.212,0.144 -13.542,-0.144 -30.378,-0.72l-0.863,9.342c13.521,2.448 24.326,2.736 30.809,2.736c23.189,0 33.255,-4.169 33.255,-27.058c0,-15.411 -4.745,-24.197 -20.001,-27.942l-20.169,-5.041c-8.788,-2.161 -12.534,-5.329 -12.534,-16.276c-0,-14.691 5.619,-15.123 20.025,-15.123c9.22,0 19.737,0.288 28.077,0.72l0.863,-9.216c-9.923,-2.143 -20.152,-2.718 -29.516,-2.862Z" style="fill:#2f81f7;fill-rule:nonzero;"/><path d="M117.648,0l0,3.15l17.28,0c1.008,0 1.728,0.721 1.728,1.729l0,124.577c0,1.008 -0.72,1.728 -1.728,1.728l-17.28,0l0,3.15l18,0c2.584,0 4.446,-1.861 4.446,-4.446l0,-125.441c0,-2.586 -1.862,-4.447 -4.446,-4.447l-18,0Z" style="fill:#2f81f7;fill-rule:nonzero;"/><path d="M188.967,51.551c-18.606,-0 -25.193,8.026 -25.193,30.232c0,22.206 6.587,30.233 25.193,30.233c18.606,-0 25.192,-8.027 25.192,-30.233c0,-22.206 -6.586,-30.232 -25.192,-30.232Zm-0,2.745c16.325,-0 22.207,6.721 22.207,27.487c0,20.766 -5.882,27.488 -22.207,27.488c-16.326,-0 -22.208,-6.722 -22.208,-27.488c0,-20.766 5.882,-27.487 22.208,-27.487Z" style="fill:#0b0f14;fill-rule:nonzero;"/><path d="M265.808,51.551l-2.28,-0c-8.64,-0 -17.4,4.425 -27,11.985l-0.361,-10.546l-2.181,0l-0,57.586l2.902,-0l0,-44.52c10.68,-7.56 18,-11.76 26.28,-11.76l2.04,-0l0.6,-2.745Z" style="fill:#0b0f14;fill-rule:nonzero;"/><path d="M292.4,78.896l25.199,31.68l3.72,-0l-23.64,-29.76c-0.72,-0.96 -2.04,-2.278 -2.76,-2.994l0,-0.239c0.72,-0.477 2.04,-1.672 2.76,-2.392l21.72,-22.201l-3.84,0l-23.16,23.281l-9.958,-0c0.358,-3.48 0.478,-6.12 0.478,-9.84l-0.24,-39.841l-2.865,0l0,83.986l2.865,-0l0,-21.24c0,-3.6 0,-6.72 -0.238,-10.44l9.958,-0Z" style="fill:#0b0f14;fill-rule:nonzero;"/><path d="M357.327,51.551c-18.606,-0 -25.192,8.026 -25.192,30.232c-0,22.206 6.586,30.233 25.192,30.233c18.606,-0 25.192,-8.027 25.192,-30.233c0,-22.206 -6.586,-30.232 -25.192,-30.232Zm-0,2.745c16.325,-0 22.207,6.721 22.207,27.487c0,20.766 -5.882,27.488 -22.207,27.488c-16.326,-0 -22.208,-6.722 -22.208,-27.488c0,-20.766 5.882,-27.487 22.208,-27.487Z" style="fill:#0b0f14;fill-rule:nonzero;"/><path d="M419.607,51.551c-14.046,-0.24 -21.233,0.715 -21.233,15.228c0,9.963 4.426,13.924 12.469,14.884l19.448,2.401c5.762,0.72 10.203,3.481 10.203,11.883c0,11.523 -5.282,13.083 -19.687,13.324c-7.683,0.119 -13.085,-0.121 -20.642,-0.841l-0.358,2.146c8.755,1.2 15.238,1.32 20.88,1.32c14.525,-0 22.672,-1.313 22.672,-15.949c0,-9.123 -4.665,-13.564 -13.068,-14.644l-19.448,-2.401c-6.122,-0.72 -9.604,-3.601 -9.604,-12.123c0,-12.484 5.523,-12.842 18.368,-12.603c7.082,0.119 14.885,0.48 21.962,0.96l0.358,-2.145c-7.075,-0.844 -15.358,-1.321 -22.32,-1.44Z" style="fill:#0b0f14;fill-rule:nonzero;"/></g></svg>